<mxfile host="app.diagrams.net" modified="2023-06-01T17:08:54.355Z" agent="Mozilla/5.0 (Windows NT 10.0; Win64; x64) AppleWebKit/537.36 (KHTML, like Gecko) Chrome/113.0.0.0 Safari/537.36" etag="sjHQJatzhIYylDBeVjk-" version="21.3.6" type="device">
  <diagram name="Страница 1" id="oAZS62ScNR9xgGpj_4to">
    <mxGraphModel dx="613" dy="729" grid="1" gridSize="10" guides="1" tooltips="1" connect="1" arrows="1" fold="1" page="1" pageScale="1" pageWidth="827" pageHeight="1169" math="0" shadow="0">
      <root>
        <mxCell id="0" />
        <mxCell id="1" parent="0" />
        <mxCell id="e5qbhKZuXRCRpnGzEaC4-1" value="Авторизованный&amp;nbsp;&lt;br&gt;пользователь&lt;br&gt;" style="shape=umlActor;verticalLabelPosition=bottom;verticalAlign=top;html=1;outlineConnect=0;" vertex="1" parent="1">
          <mxGeometry x="150" y="100" width="30" height="60" as="geometry" />
        </mxCell>
        <mxCell id="e5qbhKZuXRCRpnGzEaC4-2" value="" style="endArrow=classic;html=1;rounded=0;" edge="1" parent="1">
          <mxGeometry width="50" height="50" relative="1" as="geometry">
            <mxPoint x="170" y="240" as="sourcePoint" />
            <mxPoint x="370" y="240" as="targetPoint" />
          </mxGeometry>
        </mxCell>
        <mxCell id="e5qbhKZuXRCRpnGzEaC4-3" value="Авторизованный&amp;nbsp;&lt;br&gt;пользователь&lt;br&gt;" style="shape=umlActor;verticalLabelPosition=bottom;verticalAlign=top;html=1;outlineConnect=0;" vertex="1" parent="1">
          <mxGeometry x="150" y="360" width="30" height="60" as="geometry" />
        </mxCell>
        <mxCell id="e5qbhKZuXRCRpnGzEaC4-4" value="" style="endArrow=none;dashed=1;html=1;dashPattern=1 3;strokeWidth=2;rounded=0;" edge="1" parent="1">
          <mxGeometry width="50" height="50" relative="1" as="geometry">
            <mxPoint x="170" y="350" as="sourcePoint" />
            <mxPoint x="170" y="190" as="targetPoint" />
          </mxGeometry>
        </mxCell>
        <mxCell id="e5qbhKZuXRCRpnGzEaC4-5" value="Перейти на главную страницу" style="text;html=1;align=center;verticalAlign=middle;resizable=0;points=[];autosize=1;strokeColor=none;fillColor=none;" vertex="1" parent="1">
          <mxGeometry x="170" y="210" width="190" height="30" as="geometry" />
        </mxCell>
        <mxCell id="e5qbhKZuXRCRpnGzEaC4-6" value="" style="endArrow=classic;html=1;rounded=0;" edge="1" parent="1">
          <mxGeometry width="50" height="50" relative="1" as="geometry">
            <mxPoint x="170" y="280" as="sourcePoint" />
            <mxPoint x="370" y="280" as="targetPoint" />
          </mxGeometry>
        </mxCell>
        <mxCell id="e5qbhKZuXRCRpnGzEaC4-7" value="Поиск книги по сайту Достоевский" style="text;html=1;align=center;verticalAlign=middle;resizable=0;points=[];autosize=1;strokeColor=none;fillColor=none;" vertex="1" parent="1">
          <mxGeometry x="160" y="250" width="210" height="30" as="geometry" />
        </mxCell>
        <mxCell id="e5qbhKZuXRCRpnGzEaC4-8" value="" style="endArrow=classic;html=1;rounded=0;" edge="1" parent="1">
          <mxGeometry width="50" height="50" relative="1" as="geometry">
            <mxPoint x="170" y="310" as="sourcePoint" />
            <mxPoint x="370" y="310" as="targetPoint" />
          </mxGeometry>
        </mxCell>
        <mxCell id="e5qbhKZuXRCRpnGzEaC4-9" value="Отправить форму" style="text;html=1;align=center;verticalAlign=middle;resizable=0;points=[];autosize=1;strokeColor=none;fillColor=none;" vertex="1" parent="1">
          <mxGeometry x="190" y="288" width="120" height="30" as="geometry" />
        </mxCell>
        <mxCell id="e5qbhKZuXRCRpnGzEaC4-10" value="Книжный магазин" style="rounded=1;whiteSpace=wrap;html=1;fillColor=none;" vertex="1" parent="1">
          <mxGeometry x="300" y="130" width="160" height="40" as="geometry" />
        </mxCell>
        <mxCell id="e5qbhKZuXRCRpnGzEaC4-11" value="Книжный магазин" style="rounded=1;whiteSpace=wrap;html=1;fillColor=none;" vertex="1" parent="1">
          <mxGeometry x="302.5" y="410" width="155" height="40" as="geometry" />
        </mxCell>
        <mxCell id="e5qbhKZuXRCRpnGzEaC4-12" value="" style="endArrow=none;dashed=1;html=1;dashPattern=1 3;strokeWidth=2;rounded=0;exitX=0.442;exitY=-0.05;exitDx=0;exitDy=0;entryX=0.444;entryY=1.1;entryDx=0;entryDy=0;entryPerimeter=0;exitPerimeter=0;" edge="1" parent="1" source="e5qbhKZuXRCRpnGzEaC4-11" target="e5qbhKZuXRCRpnGzEaC4-10">
          <mxGeometry width="50" height="50" relative="1" as="geometry">
            <mxPoint x="340" y="220" as="sourcePoint" />
            <mxPoint x="390" y="170" as="targetPoint" />
          </mxGeometry>
        </mxCell>
        <mxCell id="e5qbhKZuXRCRpnGzEaC4-13" value="" style="endArrow=classic;html=1;rounded=0;" edge="1" parent="1">
          <mxGeometry width="50" height="50" relative="1" as="geometry">
            <mxPoint x="374" y="340" as="sourcePoint" />
            <mxPoint x="600" y="340" as="targetPoint" />
          </mxGeometry>
        </mxCell>
        <mxCell id="e5qbhKZuXRCRpnGzEaC4-14" value="Post /feedback" style="text;html=1;align=center;verticalAlign=middle;resizable=0;points=[];autosize=1;strokeColor=none;fillColor=none;" vertex="1" parent="1">
          <mxGeometry x="414" y="310" width="100" height="30" as="geometry" />
        </mxCell>
        <mxCell id="e5qbhKZuXRCRpnGzEaC4-15" value="" style="endArrow=classic;html=1;rounded=0;" edge="1" parent="1">
          <mxGeometry width="50" height="50" relative="1" as="geometry">
            <mxPoint x="600" y="380" as="sourcePoint" />
            <mxPoint x="370" y="380" as="targetPoint" />
          </mxGeometry>
        </mxCell>
        <mxCell id="e5qbhKZuXRCRpnGzEaC4-17" value="200 OK" style="text;html=1;align=center;verticalAlign=middle;resizable=0;points=[];autosize=1;strokeColor=none;fillColor=none;" vertex="1" parent="1">
          <mxGeometry x="380" y="358" width="60" height="30" as="geometry" />
        </mxCell>
        <mxCell id="e5qbhKZuXRCRpnGzEaC4-18" value="Результат с поиском книги" style="rounded=1;whiteSpace=wrap;html=1;fillColor=none;" vertex="1" parent="1">
          <mxGeometry x="522" y="150" width="158" height="40" as="geometry" />
        </mxCell>
        <mxCell id="e5qbhKZuXRCRpnGzEaC4-20" value="Результат с поиском книги" style="rounded=1;whiteSpace=wrap;html=1;fillColor=none;" vertex="1" parent="1">
          <mxGeometry x="522" y="410" width="158" height="40" as="geometry" />
        </mxCell>
        <mxCell id="e5qbhKZuXRCRpnGzEaC4-21" value="" style="endArrow=none;dashed=1;html=1;dashPattern=1 3;strokeWidth=2;rounded=0;entryX=0.5;entryY=1;entryDx=0;entryDy=0;exitX=0.5;exitY=0;exitDx=0;exitDy=0;" edge="1" parent="1" source="e5qbhKZuXRCRpnGzEaC4-20" target="e5qbhKZuXRCRpnGzEaC4-18">
          <mxGeometry width="50" height="50" relative="1" as="geometry">
            <mxPoint x="450" y="330" as="sourcePoint" />
            <mxPoint x="500" y="280" as="targetPoint" />
          </mxGeometry>
        </mxCell>
      </root>
    </mxGraphModel>
  </diagram>
</mxfile>
